# xmcd
#
# Track frame offsets: 
#        150
#        18032
#        32507
#        50542
#        67204
#        80618
#        103638
#        121544
#        148070
#        159335
#        171871
#
# Disc length: 2579 seconds
#
# Revision: 0
# Processed by: cddbd v1.5.2PL0 Copyright (c) Steve Scherf et al.
# Submitted via: ExactAudioCopy v0.99pb4
#
DISCID=870a110b
DTITLE=The Scotch Of Saint James - Vigilante Neck Tie Party
DYEAR=2010
DGENRE=Rock
TTITLE0=Square Eyes
TTITLE1=Blue Plastic Spoon
TTITLE2=The Happy Peacock
TTITLE3=Sir Richard McGavin
TTITLE4=Hey Man
TTITLE5=Did None Boy
TTITLE6=My Shoes
TTITLE7=Oliver
TTITLE8=Hitlers Lament
TTITLE9=Bloated Country Pride
TTITLE10=Reprise (For They Are Good And Proper)
EXTD=
EXTT0=
EXTT1=
EXTT2=
EXTT3=
EXTT4=
EXTT5=
EXTT6=
EXTT7=
EXTT8=
EXTT9=
EXTT10=
PLAYORDER=
